<svg width="49" height="47" viewBox="0 0 49 47" fill="none" xmlns="http://www.w3.org/2000/svg">
<path d="M43.295 19.8723L34.295 28.6848C34.0817 28.8794 33.7997 28.9853 33.5082 28.9803C33.2168 28.9752 32.9387 28.8596 32.7326 28.6578C32.5265 28.456 32.4084 28.1837 32.4032 27.8983C32.3981 27.6129 32.5063 27.3367 32.705 27.1279L39.7831 20.1954H31.4375C27.695 20.1924 24.0578 21.4084 21.0987 23.6521C18.1397 25.8957 16.0269 29.0394 15.0931 32.588C15.0185 32.8709 14.8322 33.1132 14.5752 33.2616C14.3181 33.41 14.0114 33.4523 13.7225 33.3793C13.4336 33.3063 13.1861 33.1238 13.0346 32.8721C12.883 32.6205 12.8398 32.3201 12.9144 32.0372C13.9728 28.0156 16.3673 24.453 19.7208 21.9103C23.0742 19.3676 27.1961 17.9892 31.4375 17.9923H39.7869L32.705 11.0598C32.5063 10.851 32.3981 10.5748 32.4032 10.2894C32.4084 10.004 32.5265 9.73174 32.7326 9.52992C32.9387 9.32809 33.2168 9.21248 33.5082 9.20745C33.7997 9.20241 34.0817 9.30834 34.295 9.50292L43.295 18.3154C43.5057 18.522 43.624 18.8019 43.624 19.0939C43.624 19.3858 43.5057 19.6658 43.295 19.8723ZM36.5 38.5548H8C7.90054 38.5548 7.80516 38.5161 7.73483 38.4473C7.66451 38.3784 7.625 38.285 7.625 38.1876V16.1564C7.625 15.8642 7.50647 15.584 7.2955 15.3774C7.08452 15.1709 6.79837 15.0548 6.5 15.0548C6.20163 15.0548 5.91548 15.1709 5.7045 15.3774C5.49353 15.584 5.375 15.8642 5.375 16.1564V38.1876C5.375 38.8693 5.65156 39.5231 6.14384 40.0051C6.63613 40.4871 7.30381 40.7579 8 40.7579H36.5C36.7984 40.7579 37.0845 40.6419 37.2955 40.4353C37.5065 40.2287 37.625 39.9485 37.625 39.6564C37.625 39.3642 37.5065 39.084 37.2955 38.8774C37.0845 38.6709 36.7984 38.5548 36.5 38.5548Z" fill="black"/>
</svg>
