<svg width="61" height="60" viewBox="0 0 61 60" fill="none" xmlns="http://www.w3.org/2000/svg">
<path d="M28.1224 8.93566C28.8707 6.63239 32.1293 6.63239 32.8776 8.93566L36.0863 18.811C36.5549 20.2531 37.8988 21.2295 39.415 21.2295H49.7986C52.2205 21.2295 53.2274 24.3285 51.2681 25.752L42.8676 31.8554C41.6409 32.7466 41.1276 34.3264 41.5962 35.7685L44.8049 45.6439C45.5532 47.9471 42.917 49.8625 40.9578 48.4389L32.5573 42.3356C31.3305 41.4444 29.6695 41.4444 28.4428 42.3356L20.0422 48.4389C18.083 49.8624 15.4468 47.9471 16.1951 45.6439L19.4038 35.7685C19.8724 34.3264 19.3591 32.7466 18.1324 31.8554L9.7319 25.752C7.77261 24.3285 8.77955 21.2295 11.2014 21.2295H21.5849C23.1012 21.2295 24.4451 20.2531 24.9137 18.8111L28.1224 8.93566Z" fill="#FFD400" stroke="#FFD400"/>
</svg>
